# xmcd
#
# Track frame offsets: 
#        150
#        16949
#        35061
#        40931
#        66083
#        68787
#        83296
#        101463
#        106941
#        124723
#        142222
#        144500
#        166221
#        191510
#
# Disc length: 2746 seconds
#
# Revision: 0
# Processed by: cddbd v1.5.2PL0 Copyright (c) Steve Scherf et al.
# Submitted via: ExactAudioCopy v1.0b4
#
DISCID=b90ab80e
DTITLE=Various Artist - Howlin' At Greaseland
DYEAR=2017
DGENRE=Blues
TTITLE0=Meet Me In The Bottom - Alabama Mike
TTITLE1=Smokestack Lightnin' - John Blues Boyd
TTITLE2=Terry Hanck Speaks
TTITLE3=Howlin' For My Darling - Terry Hanck
TTITLE4=Tail Dragger Speaks
TTITLE5=I'm Leaving You - Tail Dragger
TTITLE6=Worried Life Blues - Henry Gray and Ali Kumar
TTITLE7=John Blues Boyd Speaks
TTITLE8=Riding In The Moonlight - John Blues Boyd
TTITLE9=Forty Four - Lee Donald
TTITLE10=Tail Dragger Speaks
TTITLE11=Don't Trust No Woman - Tail Dragger
TTITLE12=Little Red Rooster - Henry Gray and Kid Andersen
TTITLE13=Spoonful - John Blues Boyd
EXTD=
EXTT0=
EXTT1=
EXTT2=
EXTT3=
EXTT4=
EXTT5=
EXTT6=
EXTT7=
EXTT8=
EXTT9=
EXTT10=
EXTT11=
EXTT12=
EXTT13=
PLAYORDER=
